# xmcd CD database file
#
# Track frame offsets:
#	150
#	12192
#	24411
#	37182
#	50837
#	63705
#	77608
#	91321
#	105857
#	119198
#	132277
#	144951
#	157647
#	170823
#	184047
#	196523
#	211231
#	223690
#	237622
#	251793
#	264021
#	275389
#	291655
#	304277
#	317693
#	328200
#	339520
#
# Disc length: 4673 seconds
#
# Revision: 2
# Processed by: cddbd v1.5.2PL0 Copyright (c) Steve Scherf et al.
# Submitted via: CDex 1.51
#
DISCID=93123f1b
DTITLE=B.B. King - Why I Sing the Blues
DYEAR=2007
DGENRE=Blues
TTITLE0=Dark Is the Night (Part 1)
TTITLE1=Dark Is the Night (Part 2)
TTITLE2=Every Day (I Have the Blues)
TTITLE3=Three o'clock Blues
TTITLE4=Please Love Me
TTITLE5=You Know I Love You
TTITLE6=You Upset Me Baby
TTITLE7=Sweet Little Angel
TTITLE8=Woke Up This Morning
TTITLE9=Bad Luck
TTITLE10=Ten Long Years
TTITLE11=I Wonder
TTITLE12=On My Word of Honor
TTITLE13=When My Heart Beats Like a Hammer
TTITLE14=Why I Sing the Blues
TTITLE15=Past Day
TTITLE16=I Gotta Find My Baby
TTITLE17=Blind Love
TTITLE18=Whole Lotta Love
TTITLE19=Miss Martha King
TTITLE20=She's Dynamite
TTITLE21=Troubles, Troubles, Troubles
TTITLE22=Boogie Woogie Woman
TTITLE23=Crying Won't Help You
TTITLE24=That Ain't the Way to Do It
TTITLE25=Bye Bye Baby
TTITLE26=Let's Do the Boogie
EXTD=YEAR: 2007
EXTT0=
EXTT1=
EXTT2=
EXTT3=
EXTT4=
EXTT5=
EXTT6=
EXTT7=
EXTT8=
EXTT9=
EXTT10=
EXTT11=
EXTT12=
EXTT13=
EXTT14=
EXTT15=
EXTT16=
EXTT17=
EXTT18=
EXTT19=
EXTT20=
EXTT21=
EXTT22=
EXTT23=
EXTT24=
EXTT25=
EXTT26=
PLAYORDER=
